<svg width="273" height="49" viewBox="0 0 273 49" fill="none" xmlns="http://www.w3.org/2000/svg">
<path d="M21.992 22.176H11.086L9.2 33H1.779L6.986 3.48H27.568L26.42 9.876H13.218L12.193 15.78H23.099L21.992 22.176ZM46.4511 17.461C46.4511 18.3903 46.2871 19.2923 45.9591 20.167C45.6584 21.0417 45.3577 21.684 45.0571 22.094L44.6061 22.668H38.4151C39.0984 22.0393 39.4401 21.2603 39.4401 20.331C39.4401 19.839 39.2761 19.4427 38.9481 19.142C38.6474 18.814 38.2237 18.65 37.6771 18.65C36.7477 18.65 35.9414 19.1147 35.2581 20.044L32.9621 33H25.9921L29.4771 13.279H35.9551L35.4631 16.026C37.0211 13.812 38.9071 12.705 41.1211 12.705C42.8977 12.705 44.2234 13.1287 45.0981 13.976C46.0001 14.8233 46.4511 15.985 46.4511 17.461ZM66.8556 26.686C66.8556 27.3967 67.2109 27.752 67.9216 27.752C68.6596 27.752 69.2746 27.6153 69.7666 27.342L69.5616 31.975C68.2496 33.041 66.7736 33.574 65.1336 33.574C62.1269 33.574 60.4596 32.4807 60.1316 30.294C58.7649 32.4807 56.7559 33.574 54.1046 33.574C49.6219 33.574 47.3806 31.647 47.3806 27.793C47.3806 27.137 47.4489 26.4127 47.5856 25.62L48.4466 20.823C48.8839 18.363 49.8816 16.4087 51.4396 14.96C53.0249 13.484 55.0749 12.746 57.5896 12.746C60.1316 12.746 61.8536 13.3337 62.7556 14.509L62.9606 13.279H69.1926L66.8966 26.194C66.8693 26.358 66.8556 26.522 66.8556 26.686ZM54.7196 24.718C54.6649 24.964 54.6376 25.3057 54.6376 25.743C54.6376 26.1803 54.8426 26.6177 55.2526 27.055C55.6626 27.465 56.3459 27.67 57.3026 27.67C58.2866 27.67 59.1339 27.2873 59.8446 26.522L61.0746 19.634C60.7739 18.9507 60.0633 18.609 58.9426 18.609C56.8379 18.609 55.6079 19.6203 55.2526 21.643L54.7196 24.718ZM106.239 27.752C106.867 27.752 107.428 27.6153 107.92 27.342L107.715 31.975C106.43 33.041 104.968 33.574 103.328 33.574C99.6103 33.574 97.7517 32.016 97.7517 28.9C97.7517 28.3533 97.8063 27.7657 97.9157 27.137L98.7767 22.094C98.8587 21.602 98.8997 21.11 98.8997 20.618C98.8997 19.306 98.1753 18.65 96.7267 18.65C95.3053 18.65 94.1847 19.2103 93.3647 20.331L91.1507 33H84.1807L86.1077 22.094C86.1897 21.602 86.2307 21.11 86.2307 20.618C86.2307 19.306 85.4927 18.65 84.0167 18.65C82.8413 18.65 81.83 19.101 80.9827 20.003L78.6867 33H71.7167L75.2017 13.279H81.6797L81.2287 15.739C82.8687 13.7163 84.946 12.705 87.4607 12.705C91.014 12.705 93.0367 13.8803 93.5287 16.231C95.1687 13.8803 97.3553 12.705 100.089 12.705C102.849 12.705 104.64 13.32 105.46 14.55C106.006 15.3973 106.28 16.3267 106.28 17.338C106.28 18.3493 106.211 19.265 106.075 20.085L105.05 26.194C105.022 26.358 105.009 26.5083 105.009 26.645C105.009 27.383 105.419 27.752 106.239 27.752ZM118.61 33.574C112.924 33.574 110.082 31.606 110.082 27.67C110.082 27.1233 110.136 26.5357 110.246 25.907L111.107 20.823C111.571 18.199 112.774 16.19 114.715 14.796C116.683 13.3747 119.279 12.664 122.505 12.664C127.999 12.664 130.746 14.7413 130.746 18.896C130.746 19.4973 130.691 20.1533 130.582 20.864L130.09 23.775H117.585L117.421 24.718C117.366 25.046 117.339 25.3467 117.339 25.62C117.339 27.1233 118.227 27.875 120.004 27.875C120.66 27.875 121.22 27.67 121.685 27.26C122.149 26.85 122.423 26.3717 122.505 25.825L129.311 25.907C128.409 31.0183 124.842 33.574 118.61 33.574ZM123.53 21.274C123.639 20.8093 123.694 20.3857 123.694 20.003C123.694 19.593 123.516 19.183 123.161 18.773C122.805 18.363 122.231 18.158 121.439 18.158C120.673 18.158 119.963 18.4177 119.307 18.937C118.678 19.4563 118.241 20.2353 117.995 21.274H123.53ZM143.2 33.574C139.291 33.574 136.585 32.7267 135.082 31.032C134.043 29.8293 133.524 28.1483 133.524 25.989C133.524 25.0597 133.62 24.062 133.811 22.996L135.492 13.566C136.722 6.65066 141.164 3.193 148.817 3.193C151.988 3.193 154.393 3.87633 156.033 5.243C157.673 6.58233 158.493 8.42733 158.493 10.778C158.493 11.8713 158.329 12.9647 158.001 14.058C157.7 15.124 157.4 15.9167 157.099 16.436L156.648 17.256H149.391C150.293 16.2173 150.744 14.7413 150.744 12.828C150.744 11.8167 150.484 11.024 149.965 10.45C149.446 9.84867 148.68 9.548 147.669 9.548C144.908 9.548 143.268 11.0787 142.749 14.14L141.314 22.422C141.177 23.1327 141.109 23.8297 141.109 24.513C141.109 26.317 142.189 27.219 144.348 27.219C146.945 27.219 148.503 25.7567 149.022 22.832H156.402L156.197 24.021C155.104 30.3897 150.771 33.574 143.2 33.574ZM179.381 17.461C179.381 18.3903 179.217 19.2923 178.889 20.167C178.588 21.0417 178.287 21.684 177.987 22.094L177.536 22.668H171.345C172.028 22.0393 172.37 21.2603 172.37 20.331C172.37 19.839 172.206 19.4427 171.878 19.142C171.577 18.814 171.153 18.65 170.607 18.65C169.677 18.65 168.871 19.1147 168.188 20.044L165.892 33H158.922L162.407 13.279H168.885L168.393 16.026C169.951 13.812 171.837 12.705 174.051 12.705C175.827 12.705 177.153 13.1287 178.028 13.976C178.93 14.8233 179.381 15.985 179.381 17.461ZM199.785 26.686C199.785 27.3967 200.141 27.752 200.851 27.752C201.589 27.752 202.204 27.6153 202.696 27.342L202.491 31.975C201.179 33.041 199.703 33.574 198.063 33.574C195.057 33.574 193.389 32.4807 193.061 30.294C191.695 32.4807 189.686 33.574 187.034 33.574C182.552 33.574 180.31 31.647 180.31 27.793C180.31 27.137 180.379 26.4127 180.515 25.62L181.376 20.823C181.814 18.363 182.811 16.4087 184.369 14.96C185.955 13.484 188.005 12.746 190.519 12.746C193.061 12.746 194.783 13.3337 195.685 14.509L195.89 13.279H202.122L199.826 26.194C199.799 26.358 199.785 26.522 199.785 26.686ZM187.649 24.718C187.595 24.964 187.567 25.3057 187.567 25.743C187.567 26.1803 187.772 26.6177 188.182 27.055C188.592 27.465 189.276 27.67 190.232 27.67C191.216 27.67 192.064 27.2873 192.774 26.522L194.004 19.634C193.704 18.9507 192.993 18.609 191.872 18.609C189.768 18.609 188.538 19.6203 188.182 21.643L187.649 24.718ZM223.055 33.738C223.055 37.7287 222.03 40.995 219.98 43.537C217.958 46.1063 215.197 47.391 211.698 47.391C208.227 47.391 205.917 46.53 204.769 44.808C204.059 43.7147 203.703 42.3753 203.703 40.79C203.703 39.232 203.84 37.674 204.113 36.116L209.361 6.432H216.331L215.101 13.279H225.31L224.285 19.06H216.249C218.19 20.618 219.803 22.6407 221.087 25.128C222.399 27.6153 223.055 30.4853 223.055 33.738ZM212.764 41.528C213.612 41.528 214.336 40.8447 214.937 39.478C215.539 38.1113 215.839 36.3073 215.839 34.066C215.839 31.852 215.607 29.6107 215.142 27.342C214.705 25.0733 214.172 23.2967 213.543 22.012L211.083 36.075C210.919 37.0317 210.837 37.8653 210.837 38.576C210.837 40.544 211.48 41.528 212.764 41.528ZM235.255 33.574C232.084 33.574 229.802 32.8633 228.408 31.442C227.369 30.4033 226.85 29.0093 226.85 27.26C226.85 26.686 226.905 26.071 227.014 25.415L229.802 9.548L237.305 6.432L236.116 13.279H247.432L246.407 19.06H235.091L234.271 23.693C234.162 24.2123 234.107 24.677 234.107 25.087C234.107 26.809 234.927 27.67 236.567 27.67C237.442 27.67 238.166 27.301 238.74 26.563C239.341 25.825 239.751 24.841 239.97 23.611H246.776C245.628 30.253 241.788 33.574 235.255 33.574Z" fill="#D9534F"/>
<path d="M20.992 23.176V23.376H21.1604L21.1891 23.2101L20.992 23.176ZM10.086 23.176V22.976H9.91784L9.88897 23.1417L10.086 23.176ZM8.2 34V34.2H8.36816L8.39703 34.0343L8.2 34ZM0.779 34L0.582041 33.9653L0.540635 34.2H0.779V34ZM5.986 4.48V4.28H5.81819L5.78904 4.44526L5.986 4.48ZM26.568 4.48L26.7649 4.51533L26.8071 4.28H26.568V4.48ZM25.42 10.876V11.076H25.5873L25.6169 10.9113L25.42 10.876ZM12.218 10.876V10.676H12.0497L12.0209 10.8418L12.218 10.876ZM11.193 16.78L10.9959 16.7458L10.9553 16.98H11.193V16.78ZM22.099 16.78L22.2961 16.8141L22.3366 16.58H22.099V16.78ZM20.992 22.976H10.086V23.376H20.992V22.976ZM9.88897 23.1417L8.00297 33.9657L8.39703 34.0343L10.283 23.2103L9.88897 23.1417ZM8.2 33.8H0.779V34.2H8.2V33.8ZM0.97596 34.0347L6.18296 4.51474L5.78904 4.44526L0.582041 33.9653L0.97596 34.0347ZM5.986 4.68H26.568V4.28H5.986V4.68ZM26.3711 4.44467L25.2231 10.8407L25.6169 10.9113L26.7649 4.51533L26.3711 4.44467ZM25.42 10.676H12.218V11.076H25.42V10.676ZM12.0209 10.8418L10.9959 16.7458L11.3901 16.8142L12.4151 10.9102L12.0209 10.8418ZM11.193 16.98H22.099V16.58H11.193V16.98ZM21.9019 16.7459L20.7949 23.1419L21.1891 23.2101L22.2961 16.8141L21.9019 16.7459ZM44.9591 21.167L44.7717 21.0967L44.7699 21.102L44.9591 21.167ZM44.0571 23.094L44.2144 23.2176L44.2183 23.2123L44.0571 23.094ZM43.6061 23.668V23.868H43.7033L43.7633 23.7916L43.6061 23.668ZM37.4151 23.668L37.2797 23.5208L36.9023 23.868H37.4151V23.668ZM37.9481 20.142L37.8006 20.2771L37.8065 20.2836L37.8129 20.2894L37.9481 20.142ZM34.2581 21.044L34.0969 20.9255L34.0693 20.9631L34.0611 21.0091L34.2581 21.044ZM31.9621 34V34.2H32.1297L32.159 34.0349L31.9621 34ZM24.9921 34L24.7951 33.9652L24.7536 34.2H24.9921V34ZM28.4771 14.279V14.079H28.3093L28.2801 14.2442L28.4771 14.279ZM34.9551 14.279L35.1519 14.3143L35.1941 14.079H34.9551V14.279ZM34.4631 17.026L34.2662 16.9907L34.6266 17.1411L34.4631 17.026ZM44.0981 14.976L43.9589 15.1197L43.9611 15.1218L44.0981 14.976ZM45.2511 18.461C45.2511 19.3662 45.0914 20.2444 44.7718 21.0968L45.1463 21.2372C45.4827 20.3402 45.6511 19.4144 45.6511 18.461H45.2511ZM44.7699 21.102C44.4714 21.9705 44.1785 22.5902 43.8958 22.9757L44.2183 23.2123C44.5369 22.7778 44.8454 22.1128 45.1482 21.232L44.7699 21.102ZM43.8998 22.9704L43.4488 23.5444L43.7633 23.7916L44.2143 23.2176L43.8998 22.9704ZM43.6061 23.468H37.4151V23.868H43.6061V23.468ZM37.5505 23.8152C38.275 23.1486 38.6401 22.3162 38.6401 21.331H38.2401C38.2401 22.2045 37.9218 22.9301 37.2797 23.5208L37.5505 23.8152ZM38.6401 21.331C38.6401 20.7895 38.4572 20.3374 38.0832 19.9946L37.8129 20.2894C38.095 20.548 38.2401 20.8885 38.2401 21.331H38.6401ZM38.0955 20.0069C37.7485 19.6283 37.266 19.45 36.6771 19.45V19.85C37.1815 19.85 37.5463 19.9997 37.8006 20.2771L38.0955 20.0069ZM36.6771 19.45C35.6687 19.45 34.8078 19.9587 34.0969 20.9255L34.4192 21.1625C35.075 20.2706 35.8267 19.85 36.6771 19.85V19.45ZM34.0611 21.0091L31.7651 33.9651L32.159 34.0349L34.455 21.0789L34.0611 21.0091ZM31.9621 33.8H24.9921V34.2H31.9621V33.8ZM25.189 34.0348L28.674 14.3138L28.2801 14.2442L24.7951 33.9652L25.189 34.0348ZM28.4771 14.479H34.9551V14.079H28.4771V14.479ZM34.7582 14.2437L34.2662 16.9907L34.6599 17.0613L35.1519 14.3143L34.7582 14.2437ZM34.6266 17.1411C36.1566 14.9669 37.987 13.905 40.1211 13.905V13.505C37.8271 13.505 35.8855 14.6571 34.2995 16.9109L34.6266 17.1411ZM40.1211 13.905C41.8695 13.905 43.1357 14.3221 43.9589 15.1196L44.2372 14.8324C43.3111 13.9352 41.926 13.505 40.1211 13.505V13.905ZM43.9611 15.1218C44.8152 15.9241 45.2511 17.0287 45.2511 18.461H45.6511C45.6511 16.9413 45.1849 15.7226 44.235 14.8302L43.9611 15.1218ZM68.7666 28.342L68.9664 28.3508L68.9822 27.9934L68.6695 28.1672L68.7666 28.342ZM68.5616 32.975L68.6877 33.1302L68.7574 33.0736L68.7614 32.9838L68.5616 32.975ZM59.1316 31.294L59.3294 31.2643L59.2491 30.7287L58.962 31.188L59.1316 31.294ZM46.5856 26.62L46.3888 26.5847L46.3885 26.586L46.5856 26.62ZM47.4466 21.823L47.6435 21.8583L47.6435 21.858L47.4466 21.823ZM50.4396 15.96L50.5758 16.1065L50.5759 16.1064L50.4396 15.96ZM61.7556 15.509L61.5969 15.6308L61.8772 15.996L61.9529 15.5419L61.7556 15.509ZM61.9606 14.279V14.079H61.7912L61.7633 14.2461L61.9606 14.279ZM68.1926 14.279L68.3895 14.314L68.4313 14.079H68.1926V14.279ZM65.8966 27.194L65.6997 27.159L65.6993 27.1611L65.8966 27.194ZM53.7196 25.718L53.9151 25.7614L53.9167 25.7522L53.7196 25.718ZM54.2526 28.055L54.1066 28.1919L54.1112 28.1964L54.2526 28.055ZM58.8446 27.522L58.9912 27.6581L59.0312 27.615L59.0415 27.5572L58.8446 27.522ZM60.0746 20.634L60.2715 20.6692L60.2822 20.6092L60.2577 20.5535L60.0746 20.634ZM54.2526 22.643L54.0556 22.6084L54.0555 22.6088L54.2526 22.643ZM65.6556 27.686C65.6556 28.0722 65.7523 28.3985 65.9807 28.6269C66.2091 28.8553 66.5354 28.952 66.9216 28.952V28.552C66.5971 28.552 66.3905 28.471 66.2635 28.3441C66.1366 28.2171 66.0556 28.0105 66.0556 27.686H65.6556ZM66.9216 28.952C67.6833 28.952 68.3342 28.811 68.8637 28.5168L68.6695 28.1672C68.215 28.4196 67.6359 28.552 66.9216 28.552V28.952ZM68.5668 28.3332L68.3618 32.9662L68.7614 32.9838L68.9664 28.3508L68.5668 28.3332ZM68.4355 32.8198C67.158 33.8578 65.7262 34.374 64.1336 34.374V34.774C65.8211 34.774 67.3413 34.2242 68.6877 33.1302L68.4355 32.8198ZM64.1336 34.374C62.6507 34.374 61.5262 34.1038 60.7378 33.5868C59.9572 33.0749 59.486 32.3082 59.3294 31.2643L58.9338 31.3237C59.1052 32.4665 59.6317 33.3397 60.5184 33.9212C61.3973 34.4976 62.6098 34.774 64.1336 34.774V34.374ZM58.962 31.188C57.6331 33.3142 55.6894 34.374 53.1046 34.374V34.774C55.8225 34.774 57.8968 33.6471 59.3012 31.4L58.962 31.188ZM53.1046 34.374C50.8873 34.374 49.2617 33.8968 48.192 32.9771C47.1281 32.0624 46.5806 30.6806 46.5806 28.793H46.1806C46.1806 30.7594 46.7538 32.2681 47.9312 33.2804C49.1029 34.2877 50.8392 34.774 53.1046 34.774V34.374ZM46.5806 28.793C46.5806 28.1506 46.6476 27.4378 46.7827 26.654L46.3885 26.586C46.2503 27.3875 46.1806 28.1234 46.1806 28.793H46.5806ZM46.7825 26.6553L47.6435 21.8583L47.2498 21.7877L46.3888 26.5847L46.7825 26.6553ZM47.6435 21.858C48.0746 19.433 49.0549 17.5206 50.5758 16.1065L50.3034 15.8135C48.7083 17.2967 47.6933 19.293 47.2497 21.788L47.6435 21.858ZM50.5759 16.1064C52.1183 14.6703 54.1168 13.946 56.5896 13.946V13.546C54.0331 13.546 51.9316 14.2977 50.3033 15.8136L50.5759 16.1064ZM56.5896 13.946C59.1128 13.946 60.7531 14.5312 61.5969 15.6308L61.9143 15.3872C60.9542 14.1362 59.1504 13.546 56.5896 13.546V13.946ZM61.9529 15.5419L62.1579 14.3119L61.7633 14.2461L61.5583 15.4761L61.9529 15.5419ZM61.9606 14.479H68.1926V14.079H61.9606V14.479ZM67.9957 14.244L65.6997 27.159L66.0935 27.229L68.3895 14.314L67.9957 14.244ZM65.6993 27.1611C65.6702 27.3358 65.6556 27.5108 65.6556 27.686H66.0556C66.0556 27.5332 66.0683 27.3802 66.0939 27.2269L65.6993 27.1611ZM53.5244 25.6746C53.4651 25.9415 53.4376 26.3001 53.4376 26.743H53.8376C53.8376 26.3113 53.8648 25.9865 53.9148 25.7614L53.5244 25.6746ZM53.4376 26.743C53.4376 27.2475 53.675 27.7313 54.1067 28.1918L54.3985 27.9182C54.0102 27.504 53.8376 27.1132 53.8376 26.743H53.4376ZM54.1112 28.1964C54.5768 28.662 55.3256 28.87 56.3026 28.87V28.47C55.3662 28.47 54.7484 28.268 54.394 27.9136L54.1112 28.1964ZM56.3026 28.87C57.3459 28.87 58.2453 28.4614 58.9912 27.6581L58.6981 27.3859C58.0226 28.1133 57.2273 28.47 56.3026 28.47V28.87ZM59.0415 27.5572L60.2715 20.6692L59.8777 20.5988L58.6477 27.4868L59.0415 27.5572ZM60.2577 20.5535C59.9101 19.7635 59.0972 19.409 57.9426 19.409V19.809C59.0294 19.809 59.6378 20.1378 59.8915 20.7145L60.2577 20.5535ZM57.9426 19.409C56.859 19.409 55.9755 19.6696 55.3146 20.213C54.6531 20.7569 54.2391 21.564 54.0556 22.6084L54.4496 22.6776C54.6214 21.6994 55.0001 20.9894 55.5686 20.522C56.1377 20.054 56.9216 19.809 57.9426 19.809V19.409ZM54.0555 22.6088L53.5225 25.6838L53.9167 25.7522L54.4497 22.6772L54.0555 22.6088ZM106.92 28.342L107.119 28.3508L107.135 27.9934L106.823 28.1672L106.92 28.342ZM106.715 32.975L106.842 33.1289L106.911 33.0723L106.914 32.9838L106.715 32.975ZM96.9157 28.137L97.1127 28.1713L97.1128 28.1707L96.9157 28.137ZM97.7767 23.094L97.9738 23.1277L97.974 23.1269L97.7767 23.094ZM92.3647 21.331L92.2033 21.2129L92.1757 21.2506L92.1677 21.2966L92.3647 21.331ZM90.1507 34V34.2H90.3188L90.3477 34.0344L90.1507 34ZM83.1807 34L82.9837 33.9652L82.9422 34.2H83.1807V34ZM85.1077 23.094L85.3046 23.1288L85.305 23.1269L85.1077 23.094ZM79.9827 21.003L79.8369 20.8661L79.7961 20.9095L79.7857 20.9682L79.9827 21.003ZM77.6867 34V34.2H77.8544L77.8836 34.0348L77.6867 34ZM70.7167 34L70.5197 33.9652L70.4782 34.2H70.7167V34ZM74.2017 14.279V14.079H74.0339L74.0047 14.2442L74.2017 14.279ZM80.6797 14.279L80.8764 14.3151L80.9197 14.079H80.6797V14.279ZM80.2287 16.739L80.032 16.7029L80.384 16.865L80.2287 16.739ZM92.5287 17.231L92.3329 17.272L92.4278 17.7252L92.6927 17.3454L92.5287 17.231ZM104.46 15.55L104.628 15.4416L104.626 15.4391L104.46 15.55ZM105.075 21.085L105.272 21.1181L105.272 21.1179L105.075 21.085ZM104.05 27.194L103.852 27.1609L103.852 27.1611L104.05 27.194ZM105.239 28.952C105.897 28.952 106.492 28.8085 107.017 28.5168L106.823 28.1672C106.364 28.4221 105.837 28.552 105.239 28.552V28.952ZM106.72 28.3332L106.515 32.9662L106.914 32.9838L107.119 28.3508L106.72 28.3332ZM106.587 32.8211C105.337 33.8579 103.92 34.374 102.328 34.374V34.774C104.015 34.774 105.523 34.2241 106.842 33.1289L106.587 32.8211ZM102.328 34.374C100.492 34.374 99.1526 33.9886 98.2742 33.2522C97.4024 32.5215 96.9517 31.417 96.9517 29.9H96.5517C96.5517 31.499 97.0302 32.7315 98.0172 33.5588C98.9974 34.3804 100.446 34.774 102.328 34.774V34.374ZM96.9517 29.9C96.9517 29.3665 97.005 28.7904 97.1127 28.1713L96.7186 28.1027C96.6076 28.7409 96.5517 29.3401 96.5517 29.9H96.9517ZM97.1128 28.1707L97.9738 23.1277L97.5795 23.0603L96.7185 28.1033L97.1128 28.1707ZM97.974 23.1269C98.0577 22.6242 98.0997 22.1212 98.0997 21.618H97.6997C97.6997 22.0988 97.6596 22.5798 97.5794 23.0611L97.974 23.1269ZM98.0997 21.618C98.0997 20.9258 97.9077 20.3714 97.4907 19.9938C97.0774 19.6195 96.4772 19.45 95.7267 19.45V19.85C96.4248 19.85 96.9111 20.0085 97.2222 20.2902C97.5295 20.5686 97.6997 20.9982 97.6997 21.618H98.0997ZM95.7267 19.45C94.2433 19.45 93.062 20.0393 92.2033 21.2129L92.5261 21.4491C93.3074 20.3813 94.3673 19.85 95.7267 19.85V19.45ZM92.1677 21.2966L89.9537 33.9656L90.3477 34.0344L92.5617 21.3654L92.1677 21.2966ZM90.1507 33.8H83.1807V34.2H90.1507V33.8ZM83.3776 34.0348L85.3046 23.1288L84.9107 23.0592L82.9837 33.9652L83.3776 34.0348ZM85.305 23.1269C85.3887 22.6242 85.4307 22.1212 85.4307 21.618H85.0307C85.0307 22.0988 84.9906 22.5798 84.9104 23.0611L85.305 23.1269ZM85.4307 21.618C85.4307 20.9247 85.2346 20.3699 84.81 19.9925C84.39 19.6191 83.7801 19.45 83.0167 19.45V19.85C83.7293 19.85 84.2264 20.0089 84.5443 20.2915C84.8578 20.5701 85.0307 20.9993 85.0307 21.618H85.4307ZM83.0167 19.45C81.7829 19.45 80.7198 19.9262 79.8369 20.8661L80.1284 21.1399C80.9402 20.2758 81.8998 19.85 83.0167 19.85V19.45ZM79.7857 20.9682L77.4897 33.9652L77.8836 34.0348L80.1796 21.0378L79.7857 20.9682ZM77.6867 33.8H70.7167V34.2H77.6867V33.8ZM70.9136 34.0348L74.3986 14.3138L74.0047 14.2442L70.5197 33.9652L70.9136 34.0348ZM74.2017 14.479H80.6797V14.079H74.2017V14.479ZM80.483 14.2429L80.032 16.7029L80.4254 16.7751L80.8764 14.3151L80.483 14.2429ZM80.384 16.865C81.9876 14.8872 84.0087 13.905 86.4607 13.905V13.505C83.8833 13.505 81.7497 14.5455 80.0733 16.613L80.384 16.865ZM86.4607 13.905C88.2189 13.905 89.5732 14.1964 90.5422 14.7594C91.503 15.3177 92.0982 16.1505 92.3329 17.272L92.7244 17.19C92.4672 15.9609 91.805 15.0306 90.7432 14.4136C89.6894 13.8013 88.2558 13.505 86.4607 13.505V13.905ZM92.6927 17.3454C94.2974 15.0453 96.4244 13.905 99.0887 13.905V13.505C96.2863 13.505 94.0399 14.7154 92.3646 17.1166L92.6927 17.3454ZM99.0887 13.905C101.838 13.905 103.533 14.5208 104.293 15.6609L104.626 15.4391C103.746 14.1192 101.861 13.505 99.0887 13.505V13.905ZM104.292 15.6584C104.817 16.4733 105.08 17.365 105.08 18.338H105.48C105.48 17.2883 105.195 16.3213 104.628 15.4416L104.292 15.6584ZM105.08 18.338C105.08 19.3406 105.012 20.245 104.877 21.0521L105.272 21.1179C105.411 20.285 105.48 19.3581 105.48 18.338H105.08ZM104.877 21.0519L103.852 27.1609L104.247 27.2271L105.272 21.1181L104.877 21.0519ZM103.852 27.1611C103.824 27.3337 103.809 27.4953 103.809 27.645H104.209C104.209 27.5214 104.221 27.3823 104.247 27.2269L103.852 27.1611ZM103.809 27.645C103.809 28.0506 103.922 28.3898 104.182 28.6239C104.438 28.8544 104.803 28.952 105.239 28.952V28.552C104.855 28.552 104.604 28.4651 104.45 28.3266C104.3 28.1917 104.209 27.9774 104.209 27.645H103.809ZM109.246 26.907L109.443 26.9413L109.443 26.9404L109.246 26.907ZM110.107 21.823L109.91 21.7881L109.91 21.7896L110.107 21.823ZM113.715 15.796L113.831 15.9584L113.832 15.9581L113.715 15.796ZM129.582 21.864L129.779 21.8973L129.779 21.8944L129.582 21.864ZM129.09 24.775V24.975H129.259L129.287 24.8083L129.09 24.775ZM116.585 24.775V24.575H116.417L116.388 24.7407L116.585 24.775ZM116.421 25.718L116.224 25.6837L116.224 25.6851L116.421 25.718ZM120.685 28.26L120.817 28.41L120.817 28.41L120.685 28.26ZM121.505 26.825L121.507 26.625L121.333 26.6229L121.307 26.7953L121.505 26.825ZM128.311 26.907L128.508 26.9418L128.549 26.7099L128.313 26.707L128.311 26.907ZM122.53 22.274V22.474H122.688L122.724 22.3198L122.53 22.274ZM122.161 19.773L122.01 19.904L122.01 19.904L122.161 19.773ZM118.307 19.937L118.183 19.7802L118.179 19.7828L118.307 19.937ZM116.995 22.274L116.8 22.2279L116.742 22.474H116.995V22.274ZM117.61 34.374C114.784 34.374 112.7 33.8838 111.328 32.9336C109.968 31.9925 109.282 30.5829 109.282 28.67H108.882C108.882 30.6931 109.617 32.2355 111.1 33.2624C112.57 34.2802 114.75 34.774 117.61 34.774V34.374ZM109.282 28.67C109.282 28.1365 109.335 27.5604 109.443 26.9413L109.049 26.8727C108.938 27.5109 108.882 28.1101 108.882 28.67H109.282ZM109.443 26.9404L110.304 21.8564L109.91 21.7896L109.049 26.8736L109.443 26.9404ZM110.304 21.8579C110.76 19.2788 111.938 17.3184 113.831 15.9584L113.598 15.6336C111.61 17.0616 110.382 19.1192 109.91 21.7881L110.304 21.8579ZM113.832 15.9581C115.756 14.5684 118.308 13.864 121.505 13.864V13.464C118.251 13.464 115.609 14.181 113.598 15.6339L113.832 15.9581ZM121.505 13.864C124.232 13.864 126.241 14.3806 127.565 15.3815C128.878 16.3744 129.546 17.8668 129.546 19.896H129.946C129.946 17.7705 129.24 16.1469 127.806 15.0625C126.383 13.986 124.271 13.464 121.505 13.464V13.864ZM129.546 19.896C129.546 20.4854 129.492 21.1311 129.384 21.8336L129.779 21.8944C129.89 21.1756 129.946 20.5093 129.946 19.896H129.546ZM129.385 21.8307L128.893 24.7417L129.287 24.8083L129.779 21.8973L129.385 21.8307ZM129.09 24.575H116.585V24.975H129.09V24.575ZM116.388 24.7407L116.224 25.6837L116.618 25.7523L116.782 24.8093L116.388 24.7407ZM116.224 25.6851C116.167 26.0217 116.139 26.3336 116.139 26.62H116.539C116.539 26.3597 116.565 26.0703 116.618 25.7509L116.224 25.6851ZM116.139 26.62C116.139 27.4121 116.374 28.0396 116.876 28.4639C117.371 28.8828 118.092 29.075 119.004 29.075V28.675C118.139 28.675 117.527 28.4913 117.134 28.1586C116.747 27.8312 116.539 27.3313 116.539 26.62H116.139ZM119.004 29.075C119.705 29.075 120.314 28.8542 120.817 28.41L120.552 28.11C120.127 28.4858 119.614 28.675 119.004 28.675V29.075ZM120.817 28.41C121.313 27.9728 121.613 27.4536 121.703 26.8547L121.307 26.7953C121.233 27.2898 120.986 27.7272 120.552 28.11L120.817 28.41ZM121.502 27.025L128.308 27.107L128.313 26.707L121.507 26.625L121.502 27.025ZM128.114 26.8722C127.67 29.3865 126.576 31.2528 124.843 32.4947C123.105 33.7399 120.701 34.374 117.61 34.374V34.774C120.751 34.774 123.246 34.1303 125.076 32.8198C126.909 31.5061 128.049 29.5388 128.508 26.9418L128.114 26.8722ZM122.724 22.3198C122.837 21.8437 122.894 21.4043 122.894 21.003H122.494C122.494 21.367 122.442 21.775 122.335 22.2282L122.724 22.3198ZM122.894 21.003C122.894 20.5312 122.688 20.0765 122.312 19.642L122.01 19.904C122.344 20.2895 122.494 20.6548 122.494 21.003H122.894ZM122.312 19.642C121.904 19.1711 121.262 18.958 120.439 18.958V19.358C121.201 19.358 121.707 19.5549 122.01 19.904L122.312 19.642ZM120.439 18.958C119.624 18.958 118.87 19.2357 118.183 19.7802L118.431 20.0938C119.055 19.5997 119.723 19.358 120.439 19.358V18.958ZM118.179 19.7828C117.508 20.3374 117.053 21.16 116.8 22.2279L117.189 22.3201C117.428 21.3107 117.848 20.5753 118.434 20.0912L118.179 19.7828ZM116.995 22.474H122.53V22.074H116.995V22.474ZM134.082 32.032L133.93 32.1627L133.932 32.1647L134.082 32.032ZM132.811 23.996L133.008 24.0313L133.008 24.0311L132.811 23.996ZM134.492 14.566L134.689 14.6011L134.689 14.601L134.492 14.566ZM155.033 6.243L154.905 6.39665L154.906 6.3979L155.033 6.243ZM157.001 15.058L156.809 15.0005L156.808 15.0037L157.001 15.058ZM156.099 17.436L155.926 17.3358L155.924 17.3396L156.099 17.436ZM155.648 18.256V18.456H155.766L155.823 18.3524L155.648 18.256ZM148.391 18.256L148.24 18.1249L147.952 18.456H148.391V18.256ZM148.965 11.45L148.813 11.5808L148.817 11.5842L148.965 11.45ZM141.749 15.14L141.946 15.1741L141.946 15.1735L141.749 15.14ZM140.314 23.422L140.51 23.4598L140.511 23.4561L140.314 23.422ZM148.022 23.832V23.632H147.854L147.825 23.797L148.022 23.832ZM155.402 23.832L155.599 23.866L155.639 23.632H155.402V23.832ZM155.197 25.021L155 24.987L155 24.9872L155.197 25.021ZM142.2 34.374C138.309 34.374 135.677 33.5286 134.231 31.8993L133.932 32.1647C135.494 33.9247 138.273 34.774 142.2 34.774V34.374ZM134.233 31.9013C133.236 30.7462 132.724 29.1176 132.724 26.989H132.324C132.324 29.179 132.851 30.9125 133.93 32.1627L134.233 31.9013ZM132.724 26.989C132.724 26.0733 132.818 25.0875 133.008 24.0313L132.614 23.9607C132.421 25.0365 132.324 26.0461 132.324 26.989H132.724ZM133.008 24.0311L134.689 14.6011L134.295 14.5309L132.614 23.9609L133.008 24.0311ZM134.689 14.601C135.297 11.1795 136.696 8.63551 138.868 6.94407C141.043 5.25093 144.019 4.393 147.817 4.393V3.993C143.962 3.993 140.889 4.8639 138.623 6.62843C136.354 8.39465 134.916 11.0372 134.295 14.531L134.689 14.601ZM147.817 4.393C150.963 4.393 153.315 5.07148 154.905 6.39664L155.161 6.08935C153.471 4.68118 151.012 3.993 147.817 3.993V4.393ZM154.906 6.3979C156.494 7.69475 157.293 9.47988 157.293 11.778H157.693C157.693 9.37478 156.851 7.46991 155.159 6.08809L154.906 6.3979ZM157.293 11.778C157.293 12.851 157.132 13.925 156.809 15.0005L157.192 15.1155C157.526 14.0043 157.693 12.8916 157.693 11.778H157.293ZM156.808 15.0037C156.509 16.0647 156.214 16.8383 155.926 17.3358L156.272 17.5362C156.585 16.9951 156.891 16.1833 157.193 15.1123L156.808 15.0037ZM155.924 17.3396L155.473 18.1596L155.823 18.3524L156.274 17.5324L155.924 17.3396ZM155.648 18.056H148.391V18.456H155.648V18.056ZM148.542 18.3871C149.486 17.3001 149.944 15.7707 149.944 13.828H149.544C149.544 15.7119 149.1 17.1346 148.24 18.1249L148.542 18.3871ZM149.944 13.828C149.944 12.7827 149.675 11.9367 149.113 11.3158L148.817 11.5842C149.293 12.1113 149.544 12.8507 149.544 13.828H149.944ZM149.116 11.3193C148.549 10.6625 147.721 10.348 146.669 10.348V10.748C147.639 10.748 148.342 11.0348 148.813 11.5807L149.116 11.3193ZM146.669 10.348C145.25 10.348 144.097 10.7423 143.232 11.5498C142.37 12.3546 141.816 13.549 141.552 15.1065L141.946 15.1735C142.201 13.6697 142.727 12.568 143.505 11.8422C144.28 11.119 145.327 10.748 146.669 10.748V10.348ZM141.552 15.1059L140.117 23.3879L140.511 23.4561L141.946 15.1741L141.552 15.1059ZM140.117 23.3842C139.979 24.1066 139.909 24.8163 139.909 25.513H140.309C140.309 24.8431 140.376 24.1587 140.51 23.4598L140.117 23.3842ZM139.909 25.513C139.909 26.4562 140.193 27.1968 140.79 27.696C141.381 28.1895 142.245 28.419 143.348 28.419V28.019C142.291 28.019 141.536 27.7975 141.047 27.389C140.565 26.9862 140.309 26.3738 140.309 25.513H139.909ZM143.348 28.419C144.685 28.419 145.777 28.0412 146.601 27.2681C147.421 26.4978 147.954 25.3556 148.219 23.867L147.825 23.797C147.57 25.2331 147.064 26.2843 146.327 26.9764C145.593 27.6656 144.607 28.019 143.348 28.019V28.419ZM148.022 24.032H155.402V23.632H148.022V24.032ZM155.205 23.798L155 24.987L155.394 25.055L155.599 23.866L155.205 23.798ZM155 24.9872C154.46 28.1314 153.125 30.4691 151.009 32.0246C148.889 33.5831 145.96 34.374 142.2 34.374V34.774C146.011 34.774 149.034 33.9727 151.246 32.3469C153.462 30.7181 154.84 28.2792 155.394 25.0548L155 24.9872ZM177.889 21.167L177.701 21.0967L177.7 21.102L177.889 21.167ZM176.987 23.094L177.144 23.2176L177.148 23.2123L176.987 23.094ZM176.536 23.668V23.868H176.633L176.693 23.7916L176.536 23.668ZM170.345 23.668L170.209 23.5208L169.832 23.868H170.345V23.668ZM170.878 20.142L170.73 20.2771L170.736 20.2836L170.743 20.2894L170.878 20.142ZM167.188 21.044L167.027 20.9255L166.999 20.9631L166.991 21.0091L167.188 21.044ZM164.892 34V34.2H165.059L165.089 34.0349L164.892 34ZM157.922 34L157.725 33.9652L157.683 34.2H157.922V34ZM161.407 14.279V14.079H161.239L161.21 14.2442L161.407 14.279ZM167.885 14.279L168.082 14.3143L168.124 14.079H167.885V14.279ZM167.393 17.026L167.196 16.9907L167.556 17.1411L167.393 17.026ZM177.028 14.976L176.889 15.1197L176.891 15.1218L177.028 14.976ZM178.181 18.461C178.181 19.3662 178.021 20.2444 177.701 21.0968L178.076 21.2372C178.412 20.3402 178.581 19.4144 178.581 18.461H178.181ZM177.7 21.102C177.401 21.9705 177.108 22.5902 176.825 22.9757L177.148 23.2123C177.467 22.7778 177.775 22.1128 178.078 21.232L177.7 21.102ZM176.829 22.9704L176.378 23.5444L176.693 23.7916L177.144 23.2176L176.829 22.9704ZM176.536 23.468H170.345V23.868H176.536V23.468ZM170.48 23.8152C171.205 23.1486 171.57 22.3162 171.57 21.331H171.17C171.17 22.2045 170.851 22.9301 170.209 23.5208L170.48 23.8152ZM171.57 21.331C171.57 20.7895 171.387 20.3374 171.013 19.9946L170.743 20.2894C171.025 20.548 171.17 20.8885 171.17 21.331H171.57ZM171.025 20.0069C170.678 19.6283 170.196 19.45 169.607 19.45V19.85C170.111 19.85 170.476 19.9997 170.73 20.2771L171.025 20.0069ZM169.607 19.45C168.598 19.45 167.737 19.9587 167.027 20.9255L167.349 21.1625C168.005 20.2706 168.756 19.85 169.607 19.85V19.45ZM166.991 21.0091L164.695 33.9651L165.089 34.0349L167.385 21.0789L166.991 21.0091ZM164.892 33.8H157.922V34.2H164.892V33.8ZM158.119 34.0348L161.604 14.3138L161.21 14.2442L157.725 33.9652L158.119 34.0348ZM161.407 14.479H167.885V14.079H161.407V14.479ZM167.688 14.2437L167.196 16.9907L167.59 17.0613L168.082 14.3143L167.688 14.2437ZM167.556 17.1411C169.086 14.9669 170.917 13.905 173.051 13.905V13.505C170.757 13.505 168.815 14.6571 167.229 16.9109L167.556 17.1411ZM173.051 13.905C174.799 13.905 176.065 14.3221 176.889 15.1196L177.167 14.8324C176.241 13.9352 174.856 13.505 173.051 13.505V13.905ZM176.891 15.1218C177.745 15.9241 178.181 17.0287 178.181 18.461H178.581C178.581 16.9413 178.115 15.7226 177.165 14.8302L176.891 15.1218ZM201.696 28.342L201.896 28.3508L201.912 27.9934L201.599 28.1672L201.696 28.342ZM201.491 32.975L201.617 33.1302L201.687 33.0736L201.691 32.9838L201.491 32.975ZM192.061 31.294L192.259 31.2643L192.179 30.7287L191.892 31.188L192.061 31.294ZM179.515 26.62L179.318 26.5847L179.318 26.586L179.515 26.62ZM180.376 21.823L180.573 21.8583L180.573 21.858L180.376 21.823ZM183.369 15.96L183.505 16.1065L183.506 16.1064L183.369 15.96ZM194.685 15.509L194.527 15.6308L194.807 15.996L194.883 15.5419L194.685 15.509ZM194.89 14.279V14.079H194.721L194.693 14.2461L194.89 14.279ZM201.122 14.279L201.319 14.314L201.361 14.079H201.122V14.279ZM198.826 27.194L198.629 27.159L198.629 27.1611L198.826 27.194ZM186.649 25.718L186.845 25.7614L186.846 25.7522L186.649 25.718ZM187.182 28.055L187.036 28.1919L187.041 28.1964L187.182 28.055ZM191.774 27.522L191.921 27.6581L191.961 27.615L191.971 27.5572L191.774 27.522ZM193.004 20.634L193.201 20.6692L193.212 20.6092L193.187 20.5535L193.004 20.634ZM187.182 22.643L186.985 22.6084L186.985 22.6088L187.182 22.643ZM198.585 27.686C198.585 28.0722 198.682 28.3985 198.91 28.6269C199.139 28.8553 199.465 28.952 199.851 28.952V28.552C199.527 28.552 199.32 28.471 199.193 28.3441C199.066 28.2171 198.985 28.0105 198.985 27.686H198.585ZM199.851 28.952C200.613 28.952 201.264 28.811 201.793 28.5168L201.599 28.1672C201.145 28.4196 200.566 28.552 199.851 28.552V28.952ZM201.496 28.3332L201.291 32.9662L201.691 32.9838L201.896 28.3508L201.496 28.3332ZM201.365 32.8198C200.088 33.8578 198.656 34.374 197.063 34.374V34.774C198.751 34.774 200.271 34.2242 201.617 33.1302L201.365 32.8198ZM197.063 34.374C195.58 34.374 194.456 34.1038 193.667 33.5868C192.887 33.0749 192.416 32.3082 192.259 31.2643L191.864 31.3237C192.035 32.4665 192.561 33.3397 193.448 33.9212C194.327 34.4976 195.54 34.774 197.063 34.774V34.374ZM191.892 31.188C190.563 33.3142 188.619 34.374 186.034 34.374V34.774C188.752 34.774 190.826 33.6471 192.231 31.4L191.892 31.188ZM186.034 34.374C183.817 34.374 182.191 33.8968 181.122 32.9771C180.058 32.0624 179.51 30.6806 179.51 28.793H179.11C179.11 30.7594 179.683 32.2681 180.861 33.2804C182.033 34.2877 183.769 34.774 186.034 34.774V34.374ZM179.51 28.793C179.51 28.1506 179.577 27.4378 179.712 26.654L179.318 26.586C179.18 27.3875 179.11 28.1234 179.11 28.793H179.51ZM179.712 26.6553L180.573 21.8583L180.179 21.7877L179.318 26.5847L179.712 26.6553ZM180.573 21.858C181.004 19.433 181.985 17.5206 183.505 16.1065L183.233 15.8135C181.638 17.2967 180.623 19.293 180.179 21.788L180.573 21.858ZM183.506 16.1064C185.048 14.6703 187.046 13.946 189.519 13.946V13.546C186.963 13.546 184.861 14.2977 183.233 15.8136L183.506 16.1064ZM189.519 13.946C192.042 13.946 193.683 14.5312 194.527 15.6308L194.844 15.3872C193.884 14.1362 192.08 13.546 189.519 13.546V13.946ZM194.883 15.5419L195.088 14.3119L194.693 14.2461L194.488 15.4761L194.883 15.5419ZM194.89 14.479H201.122V14.079H194.89V14.479ZM200.925 14.244L198.629 27.159L199.023 27.229L201.319 14.314L200.925 14.244ZM198.629 27.1611C198.6 27.3358 198.585 27.5108 198.585 27.686H198.985C198.985 27.5332 198.998 27.3802 199.024 27.2269L198.629 27.1611ZM186.454 25.6746C186.395 25.9415 186.367 26.3001 186.367 26.743H186.767C186.767 26.3113 186.795 25.9865 186.845 25.7614L186.454 25.6746ZM186.367 26.743C186.367 27.2475 186.605 27.7313 187.036 28.1918L187.328 27.9182C186.94 27.504 186.767 27.1132 186.767 26.743H186.367ZM187.041 28.1964C187.506 28.662 188.255 28.87 189.232 28.87V28.47C188.296 28.47 187.678 28.268 187.324 27.9136L187.041 28.1964ZM189.232 28.87C190.276 28.87 191.175 28.4614 191.921 27.6581L191.628 27.3859C190.952 28.1133 190.157 28.47 189.232 28.47V28.87ZM191.971 27.5572L193.201 20.6692L192.807 20.5988L191.577 27.4868L191.971 27.5572ZM193.187 20.5535C192.84 19.7635 192.027 19.409 190.872 19.409V19.809C191.959 19.809 192.567 20.1378 192.821 20.7145L193.187 20.5535ZM190.872 19.409C189.789 19.409 188.905 19.6696 188.244 20.213C187.583 20.7569 187.169 21.564 186.985 22.6084L187.379 22.6776C187.551 21.6994 187.93 20.9894 188.498 20.522C189.067 20.054 189.851 19.809 190.872 19.809V19.409ZM186.985 22.6088L186.452 25.6838L186.846 25.7522L187.379 22.6772L186.985 22.6088ZM218.98 44.537L218.825 44.4114L218.823 44.4133L218.98 44.537ZM203.769 45.808L203.602 45.917L203.603 45.9189L203.769 45.808ZM203.113 37.116L202.916 37.0812L202.916 37.0814L203.113 37.116ZM208.361 7.432V7.232H208.194L208.164 7.39718L208.361 7.432ZM215.331 7.432L215.528 7.46736L215.57 7.232H215.331V7.432ZM214.101 14.279L213.905 14.2436L213.862 14.479H214.101V14.279ZM224.31 14.279L224.507 14.3139L224.549 14.079H224.31V14.279ZM223.285 20.06V20.26H223.453L223.482 20.0949L223.285 20.06ZM215.249 20.06V19.86H214.681L215.124 20.216L215.249 20.06ZM220.087 26.128L219.91 26.2198L219.91 26.2213L220.087 26.128ZM213.937 40.478L213.754 40.3975L213.754 40.3975L213.937 40.478ZM214.142 28.342L213.946 28.3799L213.946 28.3821L214.142 28.342ZM212.543 23.012L212.723 22.9241L212.452 22.3712L212.346 22.9775L212.543 23.012ZM210.083 37.075L209.886 37.0405L209.886 37.0412L210.083 37.075ZM221.855 34.738C221.855 38.6934 220.84 41.9124 218.825 44.4114L219.136 44.6626C221.221 42.0776 222.255 38.7639 222.255 34.738H221.855ZM218.823 44.4133C216.841 46.9307 214.141 48.191 210.698 48.191V48.591C214.253 48.591 217.074 47.282 219.138 44.6607L218.823 44.4133ZM210.698 48.191C207.248 48.191 205.027 47.3339 203.936 45.6971L203.603 45.9189C204.808 47.7261 207.206 48.591 210.698 48.591V48.191ZM203.937 45.699C203.252 44.6445 202.903 43.3451 202.903 41.79H202.503C202.503 43.4056 202.866 44.7848 203.602 45.917L203.937 45.699ZM202.903 41.79C202.903 40.2438 203.039 38.6973 203.31 37.1506L202.916 37.0814C202.641 38.6507 202.503 40.2202 202.503 41.79H202.903ZM203.31 37.1508L208.558 7.46682L208.164 7.39718L202.916 37.0812L203.31 37.1508ZM208.361 7.632H215.331V7.232H208.361V7.632ZM215.135 7.39664L213.905 14.2436L214.298 14.3144L215.528 7.46736L215.135 7.39664ZM214.101 14.479H224.31V14.079H214.101V14.479ZM224.113 14.2441L223.088 20.0251L223.482 20.0949L224.507 14.3139L224.113 14.2441ZM223.285 19.86H215.249V20.26H223.285V19.86ZM215.124 20.216C217.04 21.7544 218.636 23.7542 219.91 26.2198L220.265 26.0362C218.969 23.5272 217.34 21.4816 215.375 19.904L215.124 20.216ZM219.91 26.2213C221.205 28.6757 221.855 31.5127 221.855 34.738H222.255C222.255 31.4579 221.594 28.555 220.264 26.0347L219.91 26.2213ZM211.764 42.728C212.74 42.728 213.513 41.9391 214.12 40.5585L213.754 40.3975C213.159 41.7502 212.484 42.328 211.764 42.328V42.728ZM214.12 40.5585C214.737 39.157 215.039 37.3224 215.039 35.066H214.639C214.639 37.2922 214.34 39.0656 213.754 40.3975L214.12 40.5585ZM215.039 35.066C215.039 32.8379 214.806 30.5831 214.338 28.3019L213.946 28.3821C214.409 30.6382 214.639 32.8661 214.639 35.066H215.039ZM214.339 28.3041C213.9 26.0274 213.363 24.2313 212.723 22.9241L212.364 23.0999C212.981 24.362 213.51 26.1193 213.946 28.3799L214.339 28.3041ZM212.346 22.9775L209.886 37.0405L210.28 37.1095L212.74 23.0465L212.346 22.9775ZM209.886 37.0412C209.721 38.0053 209.637 38.8508 209.637 39.576H210.037C210.037 38.8799 210.118 38.058 210.28 37.1088L209.886 37.0412ZM209.637 39.576C209.637 40.5754 209.799 41.3596 210.152 41.8993C210.514 42.4539 211.062 42.728 211.764 42.728V42.328C211.182 42.328 210.767 42.1101 210.487 41.6807C210.197 41.2364 210.037 40.5446 210.037 39.576H209.637ZM227.408 32.442L227.551 32.302L227.55 32.3006L227.408 32.442ZM226.014 26.415L225.817 26.3804L225.817 26.3821L226.014 26.415ZM228.802 10.548L228.725 10.3633L228.624 10.4054L228.605 10.5134L228.802 10.548ZM236.305 7.432L236.502 7.46622L236.564 7.10775L236.228 7.2473L236.305 7.432ZM235.116 14.279L234.919 14.2448L234.878 14.479H235.116V14.279ZM246.432 14.279L246.629 14.3139L246.671 14.079H246.432V14.279ZM245.407 20.06V20.26H245.575L245.604 20.0949L245.407 20.06ZM234.091 20.06V19.86H233.923L233.894 20.0251L234.091 20.06ZM233.271 24.693L233.467 24.7342L233.468 24.7279L233.271 24.693ZM237.74 27.563L237.585 27.4366L237.582 27.4402L237.74 27.563ZM238.97 24.611V24.411H238.803L238.773 24.576L238.97 24.611ZM245.776 24.611L245.973 24.6451L246.014 24.411H245.776V24.611ZM234.255 34.374C231.107 34.374 228.89 33.6675 227.551 32.302L227.265 32.582C228.714 34.0592 231.062 34.774 234.255 34.774V34.374ZM227.55 32.3006C226.555 31.3065 226.05 29.9672 226.05 28.26H225.65C225.65 30.0515 226.183 31.5002 227.267 32.5834L227.55 32.3006ZM226.05 28.26C226.05 27.6986 226.104 27.0947 226.211 26.4479L225.817 26.3821C225.706 27.0473 225.65 27.6734 225.65 28.26H226.05ZM226.211 26.4496L228.999 10.5826L228.605 10.5134L225.817 26.3804L226.211 26.4496ZM228.879 10.7327L236.382 7.6167L236.228 7.2473L228.725 10.3633L228.879 10.7327ZM236.108 7.39778L234.919 14.2448L235.313 14.3132L236.502 7.46622L236.108 7.39778ZM235.116 14.479H246.432V14.079H235.116V14.479ZM246.235 14.2441L245.21 20.0251L245.604 20.0949L246.629 14.3139L246.235 14.2441ZM245.407 19.86H234.091V20.26H245.407V19.86ZM233.894 20.0251L233.074 24.6581L233.468 24.7279L234.288 20.0949L233.894 20.0251ZM233.075 24.6518C232.964 25.1809 232.907 25.6598 232.907 26.087H233.307C233.307 25.6942 233.36 25.2437 233.467 24.7342L233.075 24.6518ZM232.907 26.087C232.907 26.9765 233.119 27.6807 233.577 28.1622C234.038 28.6455 234.714 28.87 235.567 28.87V28.47C234.78 28.47 234.227 28.264 233.867 27.8863C233.505 27.5068 233.307 26.9195 233.307 26.087H232.907ZM235.567 28.87C236.508 28.87 237.289 28.4686 237.898 27.6858L237.582 27.4402C237.043 28.1334 236.375 28.47 235.567 28.47V28.87ZM237.895 27.6893C238.524 26.918 238.944 25.8994 239.167 24.646L238.773 24.576C238.559 25.7826 238.159 26.732 237.585 27.4367L237.895 27.6893ZM238.97 24.811H245.776V24.411H238.97V24.811ZM245.579 24.5769C245.01 27.8674 243.779 30.3104 241.904 31.932C240.03 33.5529 237.487 34.374 234.255 34.374V34.774C237.555 34.774 240.2 33.9346 242.166 32.2345C244.131 30.5351 245.394 27.9966 245.973 24.6451L245.579 24.5769Z" fill="#5D0000" fill-opacity="0.5"/>
</svg>
